<svg class="diagram-root" style="background: #f5f6f6" xmlns="http://www.w3.org/2000/svg" xmlns:xlink="http://www.w3.org/1999/xlink"><style>.diagram-root { font-family: "Helvetica Neue", sans-serif; font-size: 12px; } .t { overflow: visible; } .t-bg { y: 40; fill: #fff;   } .th { fill: #005aa0;   } .tht { fill: #fff; font-size: 14px;  } .tf { fill: #323c46; overflow: visible; } .tf.pk { fill: #005aa0; font-weight: bold; } .tf.fk { font-weight: bold; } .ty { fill: #adb1b5; font-weight: normal; text-anchor: end; } .r { fill: transparent; stroke: #c3c3c3; stroke-width: 1; } .l { stroke: 1; } .i { fill: #c2c7ce; stroke: #c2c7ce; } .i.ix { fill: #afb3b6; stroke: #000; } .fa { fill: transparent; overflow: visible; } .fa .bg.hover { fill: #f7f7f7; } .c { cy: 12; r: 4; stroke: #d2d2dc; fill: #d2d2dc; } .hr { fill: transparent; stroke: #323c46; stroke-opacity: 0.035; stroke-width: 13; } .dc { stroke: #fa5a3c; fill: #fa5a3c; } .x { stroke: white; stroke-width: 1; } .hl .th { fill: #1b9bff; } .hl .tht {  } .fhl .bg { fill: #e7f4ff; } .fhls .bg {  } .r.hl { stroke: #1b9bff; } .dim { opacity: 0.25; }</style><g class="drawing-wrapper" transform="translate(2, 18) scale(1,1)"><g class="rs"><path d="M 386.71 177 m -1, 0 a 1,1 0 1,0 2,0 a 1,1 0 1,0 -2,0 M 386.71 177 m -0.5, 0 a 0.5,0.5 0 1,0 1,0 a 0.5,0.5 0 1,0 -1,0  M386.71 177 L386.71 177 398.71 177 M 386.71 183 m -1, 0 a 1,1 0 1,0 2,0 a 1,1 0 1,0 -2,0 M 386.71 183 m -0.5, 0 a 0.5,0.5 0 1,0 1,0 a 0.5,0.5 0 1,0 -1,0  M386.71 183 L386.71 183 393.71 177 386.71 171 M 386.71 171 m -1, 0 a 1,1 0 1,0 2,0 a 1,1 0 1,0 -2,0 M 386.71 171 m -0.5, 0 a 0.5,0.5 0 1,0 1,0 a 0.5,0.5 0 1,0 -1,0  M398.71 177 Q 414.79 177, 430.86 222.5 T 463 268 M 475 268 m -1, 0 a 1,1 0 1,0 2,0 a 1,1 0 1,0 -2,0 M 475 268 m -0.5, 0 a 0.5,0.5 0 1,0 1,0 a 0.5,0.5 0 1,0 -1,0  M475 268 L475 268 463 268 M469 274 L469 274 469 262" id="h1257175477" class="r"></path><path d="M 266 202 m -1, 0 a 1,1 0 1,0 2,0 a 1,1 0 1,0 -2,0 M 266 202 m -0.5, 0 a 0.5,0.5 0 1,0 1,0 a 0.5,0.5 0 1,0 -1,0  M266 202 L266 202 254 202 M 266 208 m -1, 0 a 1,1 0 1,0 2,0 a 1,1 0 1,0 -2,0 M 266 208 m -0.5, 0 a 0.5,0.5 0 1,0 1,0 a 0.5,0.5 0 1,0 -1,0  M266 208 L266 208 259 202 266 196 M 266 196 m -1, 0 a 1,1 0 1,0 2,0 a 1,1 0 1,0 -2,0 M 266 196 m -0.5, 0 a 0.5,0.5 0 1,0 1,0 a 0.5,0.5 0 1,0 -1,0  M254 202 Q 233.18 202, 212.35 144.5 T 170.7 87 M 158.7 87 m -1, 0 a 1,1 0 1,0 2,0 a 1,1 0 1,0 -2,0 M 158.7 87 m -0.5, 0 a 0.5,0.5 0 1,0 1,0 a 0.5,0.5 0 1,0 -1,0  M158.7 87 L158.7 87 170.7 87 M164.7 93 L164.7 93 164.7 81" id="h2181247181" class="r"></path><path d="M 266 227 m -1, 0 a 1,1 0 1,0 2,0 a 1,1 0 1,0 -2,0 M 266 227 m -0.5, 0 a 0.5,0.5 0 1,0 1,0 a 0.5,0.5 0 1,0 -1,0  M266 227 L266 227 254 227 M 266 233 m -1, 0 a 1,1 0 1,0 2,0 a 1,1 0 1,0 -2,0 M 266 233 m -0.5, 0 a 0.5,0.5 0 1,0 1,0 a 0.5,0.5 0 1,0 -1,0  M266 233 L266 233 259 227 266 221 M 266 221 m -1, 0 a 1,1 0 1,0 2,0 a 1,1 0 1,0 -2,0 M 266 221 m -0.5, 0 a 0.5,0.5 0 1,0 1,0 a 0.5,0.5 0 1,0 -1,0  M254 227 Q 237.6 227, 221.19 285.5 T 188.37 344 M 176.37 344 m -1, 0 a 1,1 0 1,0 2,0 a 1,1 0 1,0 -2,0 M 176.37 344 m -0.5, 0 a 0.5,0.5 0 1,0 1,0 a 0.5,0.5 0 1,0 -1,0  M176.37 344 L176.37 344 188.37 344 M182.37 350 L182.37 350 182.37 338" id="h120309474" class="r"></path></g><g class="hrs"></g><g class="ts"><svg width="128.7" height="100" x="30" y="30" id="h41485699" class="t"><rect height="40" width="128.7" class="th"></rect><text x="13" y="25" class="tht">Regions</text><rect height="60" width="128.7" class="t-bg"></rect><text x="13" y="61" class="tf pk">RegionID<tspan x="115.69999999999999" class="ty">int</tspan></text><path d="M7,14A2,2 0 0,1 5,12A2,2 0 0,1 7,10A2,2 0 0,1 9,12A2,2 0 0,1 7,14M12.65,10C11.83,7.67 9.61,6 7, 6A6, 6 0 0, 0 1, 12A6, 6 0 0, 0 7, 18C9.61, 18 11.83, 16.33 12.65, 14H17V18H21V14H23V10H12.65Z" class="i pk" transform="translate(83.02617187499999, 48) scale(0.65)"></path><text x="13" y="86" class="tf">Name<tspan x="115.69999999999999" class="ty">string</tspan></text><path d="M814.545 581.818v-23.273H535.273v-93.09h-46.546v93.09H209.455v139.637H256V605.09h232.727v93.09h46.546v-93.09H768v93.09h46.545V581.819zM674.91 465.455H349.091V139.636h325.818v325.819zM325.82 884.364H139.635V698.182h186.182v186.182z m279.272 0H418.909V698.182h186.182v186.182z m279.273 0H698.182V698.182h186.182v186.182zM395.636 418.909h232.728V186.182H395.636v232.727zM186.182 837.82h93.09v-93.092h-93.09v93.091z m279.273 0h93.09v-93.092h-93.09v93.091z m279.272 0h93.091v-93.092h-93.09v93.091z" class="i ix" transform="translate(71.35624999999999, 75) scale(0.014)"></path></svg><svg width="120.71" height="225" x="266" y="20" id="h1611266215" class="t"><rect height="40" width="120.71" class="th"></rect><text x="13" y="25" class="tht">Posts</text><rect height="185" width="120.71" class="t-bg"></rect><text x="13" y="61" class="tf pk">PostID<tspan x="107.71" class="ty">int</tspan></text><path d="M7,14A2,2 0 0,1 5,12A2,2 0 0,1 7,10A2,2 0 0,1 9,12A2,2 0 0,1 7,14M12.65,10C11.83,7.67 9.61,6 7, 6A6, 6 0 0, 0 1, 12A6, 6 0 0, 0 7, 18C9.61, 18 11.83, 16.33 12.65, 14H17V18H21V14H23V10H12.65Z" class="i pk" transform="translate(75.036171875, 48) scale(0.65)"></path><text x="13" y="86" class="tf">Title<tspan x="107.71" class="ty">string</tspan></text><text x="13" y="111" class="tf">Text<tspan x="107.71" class="ty">string</tspan></text><text x="13" y="136" class="tf">Location<tspan x="107.71" class="ty">string</tspan></text><text x="13" y="161" class="tf fk">UserD<tspan x="107.71" class="ty">int</tspan></text><text x="13" y="186" class="tf fk">RegionID<tspan x="107.71" class="ty">int</tspan></text><text x="13" y="211" class="tf fk">CategoryID<tspan x="107.71" class="ty">int</tspan></text></svg><svg width="201.07" height="150" x="475" y="211" id="h3889921393" class="t"><rect height="40" width="201.07" class="th"></rect><text x="13" y="25" class="tht">Users</text><rect height="110" width="201.07" class="t-bg"></rect><text x="13" y="61" class="tf pk">UserID<tspan x="188.07" class="ty">int</tspan></text><path d="M7,14A2,2 0 0,1 5,12A2,2 0 0,1 7,10A2,2 0 0,1 9,12A2,2 0 0,1 7,14M12.65,10C11.83,7.67 9.61,6 7, 6A6, 6 0 0, 0 1, 12A6, 6 0 0, 0 7, 18C9.61, 18 11.83, 16.33 12.65, 14H17V18H21V14H23V10H12.65Z" class="i pk" transform="translate(155.396171875, 48) scale(0.65)"></path><text x="13" y="86" class="tf">Username<tspan x="188.07" class="ty">string</tspan></text><text x="13" y="111" class="tf">encrypted_password<tspan x="188.07" class="ty">string</tspan></text><path d="M814.545 581.818v-23.273H535.273v-93.09h-46.546v93.09H209.455v139.637H256V605.09h232.727v93.09h46.546v-93.09H768v93.09h46.545V581.819zM674.91 465.455H349.091V139.636h325.818v325.819zM325.82 884.364H139.635V698.182h186.182v186.182z m279.272 0H418.909V698.182h186.182v186.182z m279.273 0H698.182V698.182h186.182v186.182zM395.636 418.909h232.728V186.182H395.636v232.727zM186.182 837.82h93.09v-93.092h-93.09v93.091z m279.273 0h93.09v-93.092h-93.09v93.091z m279.272 0h93.091v-93.092h-93.09v93.091z" class="i ix" transform="translate(143.72625, 100) scale(0.014)"></path><text x="13" y="136" class="tf fk">preferred_regionID<tspan x="188.07" class="ty">int</tspan></text></svg><svg width="139.37" height="100" x="37" y="287" id="h1234641711" class="t"><rect height="40" width="139.37" class="th"></rect><text x="13" y="25" class="tht">Categories</text><rect height="60" width="139.37" class="t-bg"></rect><text x="13" y="61" class="tf pk">CategoryID<tspan x="126.37" class="ty">int</tspan></text><path d="M7,14A2,2 0 0,1 5,12A2,2 0 0,1 7,10A2,2 0 0,1 9,12A2,2 0 0,1 7,14M12.65,10C11.83,7.67 9.61,6 7, 6A6, 6 0 0, 0 1, 12A6, 6 0 0, 0 7, 18C9.61, 18 11.83, 16.33 12.65, 14H17V18H21V14H23V10H12.65Z" class="i pk" transform="translate(93.696171875, 48) scale(0.65)"></path><text x="13" y="86" class="tf">Name<tspan x="126.37" class="ty">string</tspan></text><path d="M814.545 581.818v-23.273H535.273v-93.09h-46.546v93.09H209.455v139.637H256V605.09h232.727v93.09h46.546v-93.09H768v93.09h46.545V581.819zM674.91 465.455H349.091V139.636h325.818v325.819zM325.82 884.364H139.635V698.182h186.182v186.182z m279.272 0H418.909V698.182h186.182v186.182z m279.273 0H698.182V698.182h186.182v186.182zM395.636 418.909h232.728V186.182H395.636v232.727zM186.182 837.82h93.09v-93.092h-93.09v93.091z m279.273 0h93.09v-93.092h-93.09v93.091z m279.272 0h93.091v-93.092h-93.09v93.091z" class="i ix" transform="translate(82.02625, 75) scale(0.014)"></path></svg></g></g><text class="qdbd-link" x="10" y="20">www.quickdatabasediagrams.com</text></svg>