<svg class="diagram-root" style="background: #f5f6f6" xmlns="http://www.w3.org/2000/svg" xmlns:xlink="http://www.w3.org/1999/xlink"><style>.diagram-root { font-family: "Helvetica Neue", sans-serif; font-size: 12px; } .t { overflow: visible; } .t-bg { y: 40; fill: #fff;   } .th { fill: #005aa0;   } .tht { fill: #fff; font-size: 14px;  } .tf { fill: #323c46; overflow: visible; } .tf.pk { fill: #005aa0; font-weight: bold; } .tf.fk { font-weight: bold; } .ty { fill: #adb1b5; font-weight: normal; text-anchor: end; } .r { fill: transparent; stroke: #c3c3c3; stroke-width: 1; } .l { stroke: 1; } .i { fill: #c2c7ce; stroke: #c2c7ce; } .i.ix { fill: #afb3b6; stroke: #000; } .fa { fill: transparent; overflow: visible; } .fa .bg.hover { fill: #f7f7f7; } .c { cy: 12; r: 4; stroke: #d2d2dc; fill: #d2d2dc; } .hr { fill: transparent; stroke: #323c46; stroke-opacity: 0.035; stroke-width: 13; } .dc { stroke: #fa5a3c; fill: #fa5a3c; } .x { stroke: white; stroke-width: 1; } .hl .th { fill: #1b9bff; } .hl .tht {  } .fhl .bg { fill: #e7f4ff; } .fhls .bg {  } .r.hl { stroke: #1b9bff; } .dim { opacity: 0.25; }</style><g class="drawing-wrapper" transform="translate(-58, -196) scale(1,1)"><g class="rs"><path d="M 326 308 m -1, 0 a 1,1 0 1,0 2,0 a 1,1 0 1,0 -2,0 M 326 308 m -0.5, 0 a 0.5,0.5 0 1,0 1,0 a 0.5,0.5 0 1,0 -1,0  M326 308 L326 308 314 308 M 326 314 m -1, 0 a 1,1 0 1,0 2,0 a 1,1 0 1,0 -2,0 M 326 314 m -0.5, 0 a 0.5,0.5 0 1,0 1,0 a 0.5,0.5 0 1,0 -1,0  M326 314 L326 314 319 308 326 302 M 326 302 m -1, 0 a 1,1 0 1,0 2,0 a 1,1 0 1,0 -2,0 M 326 302 m -0.5, 0 a 0.5,0.5 0 1,0 1,0 a 0.5,0.5 0 1,0 -1,0  M314 308 Q 293.26 308, 272.52 304.5 T 231.04 301 M 219.04 301 m -1, 0 a 1,1 0 1,0 2,0 a 1,1 0 1,0 -2,0 M 219.04 301 m -0.5, 0 a 0.5,0.5 0 1,0 1,0 a 0.5,0.5 0 1,0 -1,0  M219.04 301 L219.04 301 231.04 301 M225.04 307 L225.04 307 225.04 295" id="h2558576686" class="r"></path><path d="M 439.13 333 m -1, 0 a 1,1 0 1,0 2,0 a 1,1 0 1,0 -2,0 M 439.13 333 m -0.5, 0 a 0.5,0.5 0 1,0 1,0 a 0.5,0.5 0 1,0 -1,0  M439.13 333 L439.13 333 451.13 333 M 439.13 339 m -1, 0 a 1,1 0 1,0 2,0 a 1,1 0 1,0 -2,0 M 439.13 339 m -0.5, 0 a 0.5,0.5 0 1,0 1,0 a 0.5,0.5 0 1,0 -1,0  M439.13 339 L439.13 339 446.13 333 439.13 327 M 439.13 327 m -1, 0 a 1,1 0 1,0 2,0 a 1,1 0 1,0 -2,0 M 439.13 327 m -0.5, 0 a 0.5,0.5 0 1,0 1,0 a 0.5,0.5 0 1,0 -1,0  M451.13 333 Q 474.35 333, 497.57 309.5 T 544 286 M 556 286 m -1, 0 a 1,1 0 1,0 2,0 a 1,1 0 1,0 -2,0 M 556 286 m -0.5, 0 a 0.5,0.5 0 1,0 1,0 a 0.5,0.5 0 1,0 -1,0  M556 286 L556 286 544 286 M550 292 L550 292 550 280" id="h518064389" class="r"></path><path d="M 368 488 m -1, 0 a 1,1 0 1,0 2,0 a 1,1 0 1,0 -2,0 M 368 488 m -0.5, 0 a 0.5,0.5 0 1,0 1,0 a 0.5,0.5 0 1,0 -1,0  M368 488 L368 488 356 488 M 368 494 m -1, 0 a 1,1 0 1,0 2,0 a 1,1 0 1,0 -2,0 M 368 494 m -0.5, 0 a 0.5,0.5 0 1,0 1,0 a 0.5,0.5 0 1,0 -1,0  M368 494 L368 494 361 488 368 482 M 368 482 m -1, 0 a 1,1 0 1,0 2,0 a 1,1 0 1,0 -2,0 M 368 482 m -0.5, 0 a 0.5,0.5 0 1,0 1,0 a 0.5,0.5 0 1,0 -1,0  M356 488 C 243.26124971216518 488, 268.46124971216517 358, 314 358 M 326 358 m -1, 0 a 1,1 0 1,0 2,0 a 1,1 0 1,0 -2,0 M 326 358 m -0.5, 0 a 0.5,0.5 0 1,0 1,0 a 0.5,0.5 0 1,0 -1,0  M326 358 L326 358 314 358 M320 364 L320 364 320 352" id="h243183674" class="r"></path><path d="M 368 538 m -1, 0 a 1,1 0 1,0 2,0 a 1,1 0 1,0 -2,0 M 368 538 m -0.5, 0 a 0.5,0.5 0 1,0 1,0 a 0.5,0.5 0 1,0 -1,0  M368 538 L368 538 356 538 M 368 544 m -1, 0 a 1,1 0 1,0 2,0 a 1,1 0 1,0 -2,0 M 368 544 m -0.5, 0 a 0.5,0.5 0 1,0 1,0 a 0.5,0.5 0 1,0 -1,0  M368 544 L368 544 361 538 368 532 M 368 532 m -1, 0 a 1,1 0 1,0 2,0 a 1,1 0 1,0 -2,0 M 368 532 m -0.5, 0 a 0.5,0.5 0 1,0 1,0 a 0.5,0.5 0 1,0 -1,0  M356 538 Q 328.35 538, 300.69 528 T 245.37 518 M 233.37 518 m -1, 0 a 1,1 0 1,0 2,0 a 1,1 0 1,0 -2,0 M 233.37 518 m -0.5, 0 a 0.5,0.5 0 1,0 1,0 a 0.5,0.5 0 1,0 -1,0  M233.37 518 L233.37 518 245.37 518 M239.37 524 L239.37 524 239.37 512" id="h3766548983" class="r"></path></g><g class="hrs"></g><g class="ts"><svg width="139.04" height="125" x="80" y="244" id="h16875077" class="t"><rect height="40" width="139.04" class="th"></rect><text x="13" y="25" class="tht">Doctors</text><rect height="85" width="139.04" class="t-bg"></rect><text x="13" y="61" class="tf pk">DoctorID<tspan x="126.03999999999999" class="ty">int</tspan></text><path d="M7,14A2,2 0 0,1 5,12A2,2 0 0,1 7,10A2,2 0 0,1 9,12A2,2 0 0,1 7,14M12.65,10C11.83,7.67 9.61,6 7, 6A6, 6 0 0, 0 1, 12A6, 6 0 0, 0 7, 18C9.61, 18 11.83, 16.33 12.65, 14H17V18H21V14H23V10H12.65Z" class="i pk" transform="translate(93.36617187499999, 48) scale(0.65)"></path><text x="13" y="86" class="tf">Name<tspan x="126.03999999999999" class="ty">string</tspan></text><path d="M814.545 581.818v-23.273H535.273v-93.09h-46.546v93.09H209.455v139.637H256V605.09h232.727v93.09h46.546v-93.09H768v93.09h46.545V581.819zM674.91 465.455H349.091V139.636h325.818v325.819zM325.82 884.364H139.635V698.182h186.182v186.182z m279.272 0H418.909V698.182h186.182v186.182z m279.273 0H698.182V698.182h186.182v186.182zM395.636 418.909h232.728V186.182H395.636v232.727zM186.182 837.82h93.09v-93.092h-93.09v93.091z m279.273 0h93.09v-93.092h-93.09v93.091z m279.272 0h93.091v-93.092h-93.09v93.091z" class="i ix" transform="translate(81.69624999999999, 75) scale(0.014)"></path><text x="13" y="111" class="tf">Specialty<tspan x="126.03999999999999" class="ty">string</tspan></text><path d="M814.545 581.818v-23.273H535.273v-93.09h-46.546v93.09H209.455v139.637H256V605.09h232.727v93.09h46.546v-93.09H768v93.09h46.545V581.819zM674.91 465.455H349.091V139.636h325.818v325.819zM325.82 884.364H139.635V698.182h186.182v186.182z m279.272 0H418.909V698.182h186.182v186.182z m279.273 0H698.182V698.182h186.182v186.182zM395.636 418.909h232.728V186.182H395.636v232.727zM186.182 837.82h93.09v-93.092h-93.09v93.091z m279.273 0h93.09v-93.092h-93.09v93.091z m279.272 0h93.091v-93.092h-93.09v93.091z" class="i ix" transform="translate(81.69624999999999, 100) scale(0.014)"></path></svg><svg width="113.13" height="150" x="326" y="226" id="h3280351983" class="t"><rect height="40" width="113.13" class="th"></rect><text x="13" y="25" class="tht">Visits</text><rect height="110" width="113.13" class="t-bg"></rect><text x="13" y="61" class="tf pk">VisitID<tspan x="100.13" class="ty">int</tspan></text><path d="M7,14A2,2 0 0,1 5,12A2,2 0 0,1 7,10A2,2 0 0,1 9,12A2,2 0 0,1 7,14M12.65,10C11.83,7.67 9.61,6 7, 6A6, 6 0 0, 0 1, 12A6, 6 0 0, 0 7, 18C9.61, 18 11.83, 16.33 12.65, 14H17V18H21V14H23V10H12.65Z" class="i pk" transform="translate(67.456171875, 48) scale(0.65)"></path><text x="13" y="86" class="tf fk">DoctorID<tspan x="100.13" class="ty">int</tspan></text><text x="13" y="111" class="tf fk">PatientID<tspan x="100.13" class="ty">int</tspan></text><text x="13" y="136" class="tf fk">Date<tspan x="100.13" class="ty">date</tspan></text></svg><svg width="143.04" height="150" x="556" y="229" id="h3676580549" class="t"><rect height="40" width="143.04" class="th"></rect><text x="13" y="25" class="tht">Patients</text><rect height="110" width="143.04" class="t-bg"></rect><text x="13" y="61" class="tf pk">PatientID<tspan x="130.04" class="ty">int</tspan></text><path d="M7,14A2,2 0 0,1 5,12A2,2 0 0,1 7,10A2,2 0 0,1 9,12A2,2 0 0,1 7,14M12.65,10C11.83,7.67 9.61,6 7, 6A6, 6 0 0, 0 1, 12A6, 6 0 0, 0 7, 18C9.61, 18 11.83, 16.33 12.65, 14H17V18H21V14H23V10H12.65Z" class="i pk" transform="translate(97.36617187499999, 48) scale(0.65)"></path><text x="13" y="86" class="tf">Name<tspan x="130.04" class="ty">string</tspan></text><text x="13" y="111" class="tf">Insurance<tspan x="130.04" class="ty">string</tspan></text><path d="M814.545 581.818v-23.273H535.273v-93.09h-46.546v93.09H209.455v139.637H256V605.09h232.727v93.09h46.546v-93.09H768v93.09h46.545V581.819zM674.91 465.455H349.091V139.636h325.818v325.819zM325.82 884.364H139.635V698.182h186.182v186.182z m279.272 0H418.909V698.182h186.182v186.182z m279.273 0H698.182V698.182h186.182v186.182zM395.636 418.909h232.728V186.182H395.636v232.727zM186.182 837.82h93.09v-93.092h-93.09v93.091z m279.273 0h93.09v-93.092h-93.09v93.091z m279.272 0h93.091v-93.092h-93.09v93.091z" class="i ix" transform="translate(85.69624999999999, 100) scale(0.014)"></path><text x="13" y="136" class="tf">Birthday<tspan x="130.04" class="ty">date</tspan></text></svg><svg width="135.37" height="125" x="98" y="461" id="h1794948770" class="t"><rect height="40" width="135.37" class="th"></rect><text x="13" y="25" class="tht">Diseases</text><rect height="85" width="135.37" class="t-bg"></rect><text x="13" y="61" class="tf pk">DiseaseID<tspan x="122.37" class="ty">int</tspan></text><path d="M7,14A2,2 0 0,1 5,12A2,2 0 0,1 7,10A2,2 0 0,1 9,12A2,2 0 0,1 7,14M12.65,10C11.83,7.67 9.61,6 7, 6A6, 6 0 0, 0 1, 12A6, 6 0 0, 0 7, 18C9.61, 18 11.83, 16.33 12.65, 14H17V18H21V14H23V10H12.65Z" class="i pk" transform="translate(89.696171875, 48) scale(0.65)"></path><text x="13" y="86" class="tf">Name<tspan x="122.37" class="ty">string</tspan></text><path d="M814.545 581.818v-23.273H535.273v-93.09h-46.546v93.09H209.455v139.637H256V605.09h232.727v93.09h46.546v-93.09H768v93.09h46.545V581.819zM674.91 465.455H349.091V139.636h325.818v325.819zM325.82 884.364H139.635V698.182h186.182v186.182z m279.272 0H418.909V698.182h186.182v186.182z m279.273 0H698.182V698.182h186.182v186.182zM395.636 418.909h232.728V186.182H395.636v232.727zM186.182 837.82h93.09v-93.092h-93.09v93.091z m279.273 0h93.09v-93.092h-93.09v93.091z m279.272 0h93.091v-93.092h-93.09v93.091z" class="i ix" transform="translate(78.02625, 75) scale(0.014)"></path><text x="13" y="111" class="tf">Description<tspan x="122.37" class="ty">string</tspan></text></svg><svg width="147.38" height="150" x="368" y="431" id="h3047656030" class="t"><rect height="40" width="147.38" class="th"></rect><text x="13" y="25" class="tht">Diagnoses</text><rect height="110" width="147.38" class="t-bg"></rect><text x="13" y="61" class="tf pk">DiagnosesID<tspan x="134.38" class="ty">int</tspan></text><path d="M7,14A2,2 0 0,1 5,12A2,2 0 0,1 7,10A2,2 0 0,1 9,12A2,2 0 0,1 7,14M12.65,10C11.83,7.67 9.61,6 7, 6A6, 6 0 0, 0 1, 12A6, 6 0 0, 0 7, 18C9.61, 18 11.83, 16.33 12.65, 14H17V18H21V14H23V10H12.65Z" class="i pk" transform="translate(101.706171875, 48) scale(0.65)"></path><text x="13" y="86" class="tf fk">VisitID<tspan x="134.38" class="ty">int</tspan></text><text x="13" y="111" class="tf fk">DiseaseID<tspan x="134.38" class="ty">int</tspan></text><text x="13" y="136" class="tf">notes<tspan x="134.38" class="ty">String</tspan></text></svg></g></g><text class="qdbd-link" x="10" y="20">www.quickdatabasediagrams.com</text></svg>