<svg class="diagram-root" style="background: #f5f6f6" xmlns="http://www.w3.org/2000/svg" xmlns:xlink="http://www.w3.org/1999/xlink"><style>.diagram-root { font-family: "Helvetica Neue", sans-serif; font-size: 12px; } .t { overflow: visible; } .t-bg { y: 40; fill: #fff;   } .th { fill: #005aa0;   } .tht { fill: #fff; font-size: 14px;  } .tf { fill: #323c46; overflow: visible; } .tf.pk { fill: #005aa0; font-weight: bold; } .tf.fk { font-weight: bold; } .ty { fill: #adb1b5; font-weight: normal; text-anchor: end; } .r { fill: transparent; stroke: #c3c3c3; stroke-width: 1; } .l { stroke: 1; } .i { fill: #c2c7ce; stroke: #c2c7ce; } .i.ix { fill: #afb3b6; stroke: #000; } .fa { fill: transparent; overflow: visible; } .fa .bg.hover { fill: #f7f7f7; } .c { cy: 12; r: 4; stroke: #d2d2dc; fill: #d2d2dc; } .hr { fill: transparent; stroke: #323c46; stroke-opacity: 0.035; stroke-width: 13; } .dc { stroke: #fa5a3c; fill: #fa5a3c; } .x { stroke: white; stroke-width: 1; } .hl .th { fill: #1b9bff; } .hl .tht {  } .fhl .bg { fill: #e7f4ff; } .fhls .bg {  } .r.hl { stroke: #1b9bff; } .dim { opacity: 0.25; }</style><g class="drawing-wrapper" transform="translate(3.6666666666665684, 18) scale(1,1)"><g class="rs"><path d="M 329.44 180.32999999999998 m -1, 0 a 1,1 0 1,0 2,0 a 1,1 0 1,0 -2,0 M 329.44 180.32999999999998 m -0.5, 0 a 0.5,0.5 0 1,0 1,0 a 0.5,0.5 0 1,0 -1,0  M329.44 180.32999999999998 L329.44 180.32999999999998 317.44 180.32999999999998 M 329.44 186.32999999999998 m -1, 0 a 1,1 0 1,0 2,0 a 1,1 0 1,0 -2,0 M 329.44 186.32999999999998 m -0.5, 0 a 0.5,0.5 0 1,0 1,0 a 0.5,0.5 0 1,0 -1,0  M329.44 186.32999999999998 L329.44 186.32999999999998 322.44 180.32999999999998 329.44 174.32999999999998 M 329.44 174.32999999999998 m -1, 0 a 1,1 0 1,0 2,0 a 1,1 0 1,0 -2,0 M 329.44 174.32999999999998 m -0.5, 0 a 0.5,0.5 0 1,0 1,0 a 0.5,0.5 0 1,0 -1,0  M317.44 180.32999999999998 Q 279.17 180.32999999999998, 240.9 133.67 T 164.35 87 M 152.35 87 m -1, 0 a 1,1 0 1,0 2,0 a 1,1 0 1,0 -2,0 M 152.35 87 m -0.5, 0 a 0.5,0.5 0 1,0 1,0 a 0.5,0.5 0 1,0 -1,0  M152.35 87 L152.35 87 164.35 87 M158.35 93 L158.35 93 158.35 81" id="h1107423575" class="r"></path><path d="M 653.33 116.44 m -1, 0 a 1,1 0 1,0 2,0 a 1,1 0 1,0 -2,0 M 653.33 116.44 m -0.5, 0 a 0.5,0.5 0 1,0 1,0 a 0.5,0.5 0 1,0 -1,0  M653.33 116.44 L653.33 116.44 641.33 116.44 M 653.33 122.44 m -1, 0 a 1,1 0 1,0 2,0 a 1,1 0 1,0 -2,0 M 653.33 122.44 m -0.5, 0 a 0.5,0.5 0 1,0 1,0 a 0.5,0.5 0 1,0 -1,0  M653.33 122.44 L653.33 122.44 646.33 116.44 653.33 110.44 M 653.33 110.44 m -1, 0 a 1,1 0 1,0 2,0 a 1,1 0 1,0 -2,0 M 653.33 110.44 m -0.5, 0 a 0.5,0.5 0 1,0 1,0 a 0.5,0.5 0 1,0 -1,0  M641.33 116.44 Q 602.37 116.44, 563.41 98.39 T 485.48 80.33 M 473.48 80.33 m -1, 0 a 1,1 0 1,0 2,0 a 1,1 0 1,0 -2,0 M 473.48 80.33 m -0.5, 0 a 0.5,0.5 0 1,0 1,0 a 0.5,0.5 0 1,0 -1,0  M473.48 80.33 L473.48 80.33 485.48 80.33 M479.48 86.33 L479.48 86.33 479.48 74.33" id="h2795302067" class="r"></path><path d="M 653.33 141.44 m -1, 0 a 1,1 0 1,0 2,0 a 1,1 0 1,0 -2,0 M 653.33 141.44 m -0.5, 0 a 0.5,0.5 0 1,0 1,0 a 0.5,0.5 0 1,0 -1,0  M653.33 141.44 L653.33 141.44 641.33 141.44 M 653.33 147.44 m -1, 0 a 1,1 0 1,0 2,0 a 1,1 0 1,0 -2,0 M 653.33 147.44 m -0.5, 0 a 0.5,0.5 0 1,0 1,0 a 0.5,0.5 0 1,0 -1,0  M653.33 147.44 L653.33 147.44 646.33 141.44 653.33 135.44 M 653.33 135.44 m -1, 0 a 1,1 0 1,0 2,0 a 1,1 0 1,0 -2,0 M 653.33 135.44 m -0.5, 0 a 0.5,0.5 0 1,0 1,0 a 0.5,0.5 0 1,0 -1,0  M641.33 141.44 Q 603.93 141.44, 566.53 242 T 491.72 342.56 M 479.72 342.56 m -1, 0 a 1,1 0 1,0 2,0 a 1,1 0 1,0 -2,0 M 479.72 342.56 m -0.5, 0 a 0.5,0.5 0 1,0 1,0 a 0.5,0.5 0 1,0 -1,0  M479.72 342.56 L479.72 342.56 491.72 342.56 M485.72 348.56 L485.72 348.56 485.72 336.56" id="h1281350960" class="r"></path><path d="M 38.89 508.67 m -1, 0 a 1,1 0 1,0 2,0 a 1,1 0 1,0 -2,0 M 38.89 508.67 m -0.5, 0 a 0.5,0.5 0 1,0 1,0 a 0.5,0.5 0 1,0 -1,0  M38.89 508.67 L38.89 508.67 26.89 508.67 M 38.89 514.6700000000001 m -1, 0 a 1,1 0 1,0 2,0 a 1,1 0 1,0 -2,0 M 38.89 514.6700000000001 m -0.5, 0 a 0.5,0.5 0 1,0 1,0 a 0.5,0.5 0 1,0 -1,0  M38.89 514.6700000000001 L38.89 514.6700000000001 31.89 508.67 38.89 502.67 M 38.89 502.67 m -1, 0 a 1,1 0 1,0 2,0 a 1,1 0 1,0 -2,0 M 38.89 502.67 m -0.5, 0 a 0.5,0.5 0 1,0 1,0 a 0.5,0.5 0 1,0 -1,0  M26.89 508.67 C -37.334 508.67, -32 87, 18 87 M 30 87 m -1, 0 a 1,1 0 1,0 2,0 a 1,1 0 1,0 -2,0 M 30 87 m -0.5, 0 a 0.5,0.5 0 1,0 1,0 a 0.5,0.5 0 1,0 -1,0  M30 87 L30 87 18 87 M24 93 L24 93 24 81" id="h2835479614" class="r"></path><path d="M 186.69 533.6700000000001 m -1, 0 a 1,1 0 1,0 2,0 a 1,1 0 1,0 -2,0 M 186.69 533.6700000000001 m -0.5, 0 a 0.5,0.5 0 1,0 1,0 a 0.5,0.5 0 1,0 -1,0  M186.69 533.6700000000001 L186.69 533.6700000000001 198.69 533.6700000000001 M 186.69 539.6700000000001 m -1, 0 a 1,1 0 1,0 2,0 a 1,1 0 1,0 -2,0 M 186.69 539.6700000000001 m -0.5, 0 a 0.5,0.5 0 1,0 1,0 a 0.5,0.5 0 1,0 -1,0  M186.69 539.6700000000001 L186.69 539.6700000000001 193.69 533.6700000000001 186.69 527.6700000000001 M 186.69 527.6700000000001 m -1, 0 a 1,1 0 1,0 2,0 a 1,1 0 1,0 -2,0 M 186.69 527.6700000000001 m -0.5, 0 a 0.5,0.5 0 1,0 1,0 a 0.5,0.5 0 1,0 -1,0  M198.69 533.6700000000001 Q 226.44 533.6700000000001, 254.18 438.12 T 309.67 342.56 M 321.67 342.56 m -1, 0 a 1,1 0 1,0 2,0 a 1,1 0 1,0 -2,0 M 321.67 342.56 m -0.5, 0 a 0.5,0.5 0 1,0 1,0 a 0.5,0.5 0 1,0 -1,0  M321.67 342.56 L321.67 342.56 309.67 342.56 M315.67 348.56 L315.67 348.56 315.67 336.56" id="h3118120024" class="r"></path><path d="M 321.67 367.56 m -1, 0 a 1,1 0 1,0 2,0 a 1,1 0 1,0 -2,0 M 321.67 367.56 m -0.5, 0 a 0.5,0.5 0 1,0 1,0 a 0.5,0.5 0 1,0 -1,0  M321.67 367.56 L321.67 367.56 309.67 367.56 M 321.67 373.56 m -1, 0 a 1,1 0 1,0 2,0 a 1,1 0 1,0 -2,0 M 321.67 373.56 m -0.5, 0 a 0.5,0.5 0 1,0 1,0 a 0.5,0.5 0 1,0 -1,0  M321.67 373.56 L321.67 373.56 314.67 367.56 321.67 361.56 M 321.67 361.56 m -1, 0 a 1,1 0 1,0 2,0 a 1,1 0 1,0 -2,0 M 321.67 361.56 m -0.5, 0 a 0.5,0.5 0 1,0 1,0 a 0.5,0.5 0 1,0 -1,0  M309.67 367.56 Q 273.34 367.56, 237.01 227.28 T 164.35 87 M 152.35 87 m -1, 0 a 1,1 0 1,0 2,0 a 1,1 0 1,0 -2,0 M 152.35 87 m -0.5, 0 a 0.5,0.5 0 1,0 1,0 a 0.5,0.5 0 1,0 -1,0  M152.35 87 L152.35 87 164.35 87 M158.35 93 L158.35 93 158.35 81" id="h1261223179" class="r"></path><path d="M 321.67 392.56 m -1, 0 a 1,1 0 1,0 2,0 a 1,1 0 1,0 -2,0 M 321.67 392.56 m -0.5, 0 a 0.5,0.5 0 1,0 1,0 a 0.5,0.5 0 1,0 -1,0  M321.67 392.56 L321.67 392.56 309.67 392.56 M 321.67 398.56 m -1, 0 a 1,1 0 1,0 2,0 a 1,1 0 1,0 -2,0 M 321.67 398.56 m -0.5, 0 a 0.5,0.5 0 1,0 1,0 a 0.5,0.5 0 1,0 -1,0  M321.67 398.56 L321.67 398.56 314.67 392.56 321.67 386.56 M 321.67 386.56 m -1, 0 a 1,1 0 1,0 2,0 a 1,1 0 1,0 -2,0 M 321.67 386.56 m -0.5, 0 a 0.5,0.5 0 1,0 1,0 a 0.5,0.5 0 1,0 -1,0  M309.67 392.56 Q 273.34 392.56, 237.01 239.78 T 164.35 87 M 152.35 87 m -1, 0 a 1,1 0 1,0 2,0 a 1,1 0 1,0 -2,0 M 152.35 87 m -0.5, 0 a 0.5,0.5 0 1,0 1,0 a 0.5,0.5 0 1,0 -1,0  M152.35 87 L152.35 87 164.35 87 M158.35 93 L158.35 93 158.35 81" id="h760688039" class="r"></path><path d="M 479.72 492.56 m -1, 0 a 1,1 0 1,0 2,0 a 1,1 0 1,0 -2,0 M 479.72 492.56 m -0.5, 0 a 0.5,0.5 0 1,0 1,0 a 0.5,0.5 0 1,0 -1,0  M479.72 492.56 L479.72 492.56 491.72 492.56 M 479.72 498.56 m -1, 0 a 1,1 0 1,0 2,0 a 1,1 0 1,0 -2,0 M 479.72 498.56 m -0.5, 0 a 0.5,0.5 0 1,0 1,0 a 0.5,0.5 0 1,0 -1,0  M479.72 498.56 L479.72 498.56 486.72 492.56 479.72 486.56 M 479.72 486.56 m -1, 0 a 1,1 0 1,0 2,0 a 1,1 0 1,0 -2,0 M 479.72 486.56 m -0.5, 0 a 0.5,0.5 0 1,0 1,0 a 0.5,0.5 0 1,0 -1,0  M491.72 492.56 Q 515.93 492.56, 540.14 495.89 T 588.55 499.22 M 600.55 499.22 m -1, 0 a 1,1 0 1,0 2,0 a 1,1 0 1,0 -2,0 M 600.55 499.22 m -0.5, 0 a 0.5,0.5 0 1,0 1,0 a 0.5,0.5 0 1,0 -1,0  M600.55 499.22 L600.55 499.22 588.55 499.22 M594.55 505.22 L594.55 505.22 594.55 493.22" id="h4249204585" class="r"></path><path d="M 321.67 517.56 m -1, 0 a 1,1 0 1,0 2,0 a 1,1 0 1,0 -2,0 M 321.67 517.56 m -0.5, 0 a 0.5,0.5 0 1,0 1,0 a 0.5,0.5 0 1,0 -1,0  M321.67 517.56 L321.67 517.56 309.67 517.56 M 321.67 523.56 m -1, 0 a 1,1 0 1,0 2,0 a 1,1 0 1,0 -2,0 M 321.67 523.56 m -0.5, 0 a 0.5,0.5 0 1,0 1,0 a 0.5,0.5 0 1,0 -1,0  M321.67 523.56 L321.67 523.56 314.67 517.56 321.67 511.55999999999995 M 321.67 511.55999999999995 m -1, 0 a 1,1 0 1,0 2,0 a 1,1 0 1,0 -2,0 M 321.67 511.55999999999995 m -0.5, 0 a 0.5,0.5 0 1,0 1,0 a 0.5,0.5 0 1,0 -1,0  M309.67 517.56 Q 273.18 517.56, 236.69 411.73 T 163.7 305.89 M 151.7 305.89 m -1, 0 a 1,1 0 1,0 2,0 a 1,1 0 1,0 -2,0 M 151.7 305.89 m -0.5, 0 a 0.5,0.5 0 1,0 1,0 a 0.5,0.5 0 1,0 -1,0  M151.7 305.89 L151.7 305.89 163.7 305.89 M157.7 311.89 L157.7 311.89 157.7 299.89" id="h2729516150" class="r"></path><path d="M 321.67 542.56 m -1, 0 a 1,1 0 1,0 2,0 a 1,1 0 1,0 -2,0 M 321.67 542.56 m -0.5, 0 a 0.5,0.5 0 1,0 1,0 a 0.5,0.5 0 1,0 -1,0  M321.67 542.56 L321.67 542.56 309.67 542.56 M 321.67 548.56 m -1, 0 a 1,1 0 1,0 2,0 a 1,1 0 1,0 -2,0 M 321.67 548.56 m -0.5, 0 a 0.5,0.5 0 1,0 1,0 a 0.5,0.5 0 1,0 -1,0  M321.67 548.56 L321.67 548.56 314.67 542.56 321.67 536.56 M 321.67 536.56 m -1, 0 a 1,1 0 1,0 2,0 a 1,1 0 1,0 -2,0 M 321.67 536.56 m -0.5, 0 a 0.5,0.5 0 1,0 1,0 a 0.5,0.5 0 1,0 -1,0  M309.67 542.56 Q 273.18 542.56, 236.69 424.23 T 163.7 305.89 M 151.7 305.89 m -1, 0 a 1,1 0 1,0 2,0 a 1,1 0 1,0 -2,0 M 151.7 305.89 m -0.5, 0 a 0.5,0.5 0 1,0 1,0 a 0.5,0.5 0 1,0 -1,0  M151.7 305.89 L151.7 305.89 163.7 305.89 M157.7 311.89 L157.7 311.89 157.7 299.89" id="h905285151" class="r"></path><path d="M 321.67 567.56 m -1, 0 a 1,1 0 1,0 2,0 a 1,1 0 1,0 -2,0 M 321.67 567.56 m -0.5, 0 a 0.5,0.5 0 1,0 1,0 a 0.5,0.5 0 1,0 -1,0  M321.67 567.56 L321.67 567.56 309.67 567.56 M 321.67 573.56 m -1, 0 a 1,1 0 1,0 2,0 a 1,1 0 1,0 -2,0 M 321.67 573.56 m -0.5, 0 a 0.5,0.5 0 1,0 1,0 a 0.5,0.5 0 1,0 -1,0  M321.67 573.56 L321.67 573.56 314.67 567.56 321.67 561.56 M 321.67 561.56 m -1, 0 a 1,1 0 1,0 2,0 a 1,1 0 1,0 -2,0 M 321.67 561.56 m -0.5, 0 a 0.5,0.5 0 1,0 1,0 a 0.5,0.5 0 1,0 -1,0  M309.67 567.56 Q 273.18 567.56, 236.69 436.73 T 163.7 305.89 M 151.7 305.89 m -1, 0 a 1,1 0 1,0 2,0 a 1,1 0 1,0 -2,0 M 151.7 305.89 m -0.5, 0 a 0.5,0.5 0 1,0 1,0 a 0.5,0.5 0 1,0 -1,0  M151.7 305.89 L151.7 305.89 163.7 305.89 M157.7 311.89 L157.7 311.89 157.7 299.89" id="h1381183551" class="r"></path><path d="M 655.56 346.44 m -1, 0 a 1,1 0 1,0 2,0 a 1,1 0 1,0 -2,0 M 655.56 346.44 m -0.5, 0 a 0.5,0.5 0 1,0 1,0 a 0.5,0.5 0 1,0 -1,0  M655.56 346.44 L655.56 346.44 643.56 346.44 M 655.56 352.44 m -1, 0 a 1,1 0 1,0 2,0 a 1,1 0 1,0 -2,0 M 655.56 352.44 m -0.5, 0 a 0.5,0.5 0 1,0 1,0 a 0.5,0.5 0 1,0 -1,0  M655.56 352.44 L655.56 352.44 648.56 346.44 655.56 340.44 M 655.56 340.44 m -1, 0 a 1,1 0 1,0 2,0 a 1,1 0 1,0 -2,0 M 655.56 340.44 m -0.5, 0 a 0.5,0.5 0 1,0 1,0 a 0.5,0.5 0 1,0 -1,0  M643.56 346.44 Q 604.04 346.44, 564.52 213.39 T 485.48 80.33 M 473.48 80.33 m -1, 0 a 1,1 0 1,0 2,0 a 1,1 0 1,0 -2,0 M 473.48 80.33 m -0.5, 0 a 0.5,0.5 0 1,0 1,0 a 0.5,0.5 0 1,0 -1,0  M473.48 80.33 L473.48 80.33 485.48 80.33 M479.48 86.33 L479.48 86.33 479.48 74.33" id="h2999752430" class="r"></path><path d="M 655.56 371.44 m -1, 0 a 1,1 0 1,0 2,0 a 1,1 0 1,0 -2,0 M 655.56 371.44 m -0.5, 0 a 0.5,0.5 0 1,0 1,0 a 0.5,0.5 0 1,0 -1,0  M655.56 371.44 L655.56 371.44 643.56 371.44 M 655.56 377.44 m -1, 0 a 1,1 0 1,0 2,0 a 1,1 0 1,0 -2,0 M 655.56 377.44 m -0.5, 0 a 0.5,0.5 0 1,0 1,0 a 0.5,0.5 0 1,0 -1,0  M655.56 377.44 L655.56 377.44 648.56 371.44 655.56 365.44 M 655.56 365.44 m -1, 0 a 1,1 0 1,0 2,0 a 1,1 0 1,0 -2,0 M 655.56 365.44 m -0.5, 0 a 0.5,0.5 0 1,0 1,0 a 0.5,0.5 0 1,0 -1,0  M643.56 371.44 Q 605.6 371.44, 567.64 357 T 491.72 342.56 M 479.72 342.56 m -1, 0 a 1,1 0 1,0 2,0 a 1,1 0 1,0 -2,0 M 479.72 342.56 m -0.5, 0 a 0.5,0.5 0 1,0 1,0 a 0.5,0.5 0 1,0 -1,0  M479.72 342.56 L479.72 342.56 491.72 342.56 M485.72 348.56 L485.72 348.56 485.72 336.56" id="h2089496818" class="r"></path><path d="M 655.56 396.44 m -1, 0 a 1,1 0 1,0 2,0 a 1,1 0 1,0 -2,0 M 655.56 396.44 m -0.5, 0 a 0.5,0.5 0 1,0 1,0 a 0.5,0.5 0 1,0 -1,0  M655.56 396.44 L655.56 396.44 643.56 396.44 M 655.56 402.44 m -1, 0 a 1,1 0 1,0 2,0 a 1,1 0 1,0 -2,0 M 655.56 402.44 m -0.5, 0 a 0.5,0.5 0 1,0 1,0 a 0.5,0.5 0 1,0 -1,0  M655.56 402.44 L655.56 402.44 648.56 396.44 655.56 390.44 M 655.56 390.44 m -1, 0 a 1,1 0 1,0 2,0 a 1,1 0 1,0 -2,0 M 655.56 390.44 m -0.5, 0 a 0.5,0.5 0 1,0 1,0 a 0.5,0.5 0 1,0 -1,0  M643.56 396.44 Q 523.76 396.44, 403.96 241.72 T 164.35 87 M 152.35 87 m -1, 0 a 1,1 0 1,0 2,0 a 1,1 0 1,0 -2,0 M 152.35 87 m -0.5, 0 a 0.5,0.5 0 1,0 1,0 a 0.5,0.5 0 1,0 -1,0  M152.35 87 L152.35 87 164.35 87 M158.35 93 L158.35 93 158.35 81" id="h3112096613" class="r"></path></g><g class="hrs"></g><g class="ts"><svg width="122.35" height="125" x="30" y="30" id="h3010508784" class="t"><rect height="40" width="122.35" class="th"></rect><text x="13" y="25" class="tht">Teams</text><rect height="85" width="122.35" class="t-bg"></rect><text x="13" y="61" class="tf pk">TeamID<tspan x="109.35" class="ty">int</tspan></text><path d="M7,14A2,2 0 0,1 5,12A2,2 0 0,1 7,10A2,2 0 0,1 9,12A2,2 0 0,1 7,14M12.65,10C11.83,7.67 9.61,6 7, 6A6, 6 0 0, 0 1, 12A6, 6 0 0, 0 7, 18C9.61, 18 11.83, 16.33 12.65, 14H17V18H21V14H23V10H12.65Z" class="i pk" transform="translate(76.676171875, 48) scale(0.65)"></path><text x="13" y="86" class="tf">Name<tspan x="109.35" class="ty">string</tspan></text><path d="M814.545 581.818v-23.273H535.273v-93.09h-46.546v93.09H209.455v139.637H256V605.09h232.727v93.09h46.546v-93.09H768v93.09h46.545V581.819zM674.91 465.455H349.091V139.636h325.818v325.819zM325.82 884.364H139.635V698.182h186.182v186.182z m279.272 0H418.909V698.182h186.182v186.182z m279.273 0H698.182V698.182h186.182v186.182zM395.636 418.909h232.728V186.182H395.636v232.727zM186.182 837.82h93.09v-93.092h-93.09v93.091z m279.273 0h93.09v-93.092h-93.09v93.091z m279.272 0h93.091v-93.092h-93.09v93.091z" class="i ix" transform="translate(65.00625, 75) scale(0.014)"></path><text x="13" y="111" class="tf">City<tspan x="109.35" class="ty">string</tspan></text><path d="M814.545 581.818v-23.273H535.273v-93.09h-46.546v93.09H209.455v139.637H256V605.09h232.727v93.09h46.546v-93.09H768v93.09h46.545V581.819zM674.91 465.455H349.091V139.636h325.818v325.819zM325.82 884.364H139.635V698.182h186.182v186.182z m279.272 0H418.909V698.182h186.182v186.182z m279.273 0H698.182V698.182h186.182v186.182zM395.636 418.909h232.728V186.182H395.636v232.727zM186.182 837.82h93.09v-93.092h-93.09v93.091z m279.273 0h93.09v-93.092h-93.09v93.091z m279.272 0h93.091v-93.092h-93.09v93.091z" class="i ix" transform="translate(65.00625, 100) scale(0.014)"></path></svg><svg width="144.04" height="175" x="329.44" y="23.33" id="h4103274130" class="t"><rect height="40" width="144.04" class="th"></rect><text x="13" y="25" class="tht">Players</text><rect height="135" width="144.04" class="t-bg"></rect><text x="13" y="61" class="tf pk">PlayerID<tspan x="131.04" class="ty">int</tspan></text><path d="M7,14A2,2 0 0,1 5,12A2,2 0 0,1 7,10A2,2 0 0,1 9,12A2,2 0 0,1 7,14M12.65,10C11.83,7.67 9.61,6 7, 6A6, 6 0 0, 0 1, 12A6, 6 0 0, 0 7, 18C9.61, 18 11.83, 16.33 12.65, 14H17V18H21V14H23V10H12.65Z" class="i pk" transform="translate(98.36617187499999, 48) scale(0.65)"></path><text x="13" y="86" class="tf">Name<tspan x="131.04" class="ty">string</tspan></text><text x="13" y="111" class="tf">Birthday<tspan x="131.04" class="ty">date</tspan></text><text x="13" y="136" class="tf">Height<tspan x="131.04" class="ty">int</tspan></text><text x="13" y="161" class="tf fk">Current_teamID<tspan x="131.04" class="ty">int</tspan></text></svg><svg width="116.02" height="125" x="653.33" y="34.44" id="h2207534861" class="t"><rect height="40" width="116.02" class="th"></rect><text x="13" y="25" class="tht">Goals</text><rect height="85" width="116.02" class="t-bg"></rect><text x="13" y="61" class="tf pk">GoalID<tspan x="103.02" class="ty">int</tspan></text><path d="M7,14A2,2 0 0,1 5,12A2,2 0 0,1 7,10A2,2 0 0,1 9,12A2,2 0 0,1 7,14M12.65,10C11.83,7.67 9.61,6 7, 6A6, 6 0 0, 0 1, 12A6, 6 0 0, 0 7, 18C9.61, 18 11.83, 16.33 12.65, 14H17V18H21V14H23V10H12.65Z" class="i pk" transform="translate(70.346171875, 48) scale(0.65)"></path><text x="13" y="86" class="tf fk">PlayerID<tspan x="103.02" class="ty">int</tspan></text><text x="13" y="111" class="tf fk">MatchID<tspan x="103.02" class="ty">int</tspan></text></svg><svg width="133.37" height="100" x="18.33" y="248.89" id="h332749422" class="t"><rect height="40" width="133.37" class="th"></rect><text x="13" y="25" class="tht">Referees</text><rect height="60" width="133.37" class="t-bg"></rect><text x="13" y="61" class="tf pk">RefereeID<tspan x="120.37" class="ty">int</tspan></text><path d="M7,14A2,2 0 0,1 5,12A2,2 0 0,1 7,10A2,2 0 0,1 9,12A2,2 0 0,1 7,14M12.65,10C11.83,7.67 9.61,6 7, 6A6, 6 0 0, 0 1, 12A6, 6 0 0, 0 7, 18C9.61, 18 11.83, 16.33 12.65, 14H17V18H21V14H23V10H12.65Z" class="i pk" transform="translate(87.696171875, 48) scale(0.65)"></path><text x="13" y="86" class="tf">Name<tspan x="120.37" class="ty">string</tspan></text><path d="M814.545 581.818v-23.273H535.273v-93.09h-46.546v93.09H209.455v139.637H256V605.09h232.727v93.09h46.546v-93.09H768v93.09h46.545V581.819zM674.91 465.455H349.091V139.636h325.818v325.819zM325.82 884.364H139.635V698.182h186.182v186.182z m279.272 0H418.909V698.182h186.182v186.182z m279.273 0H698.182V698.182h186.182v186.182zM395.636 418.909h232.728V186.182H395.636v232.727zM186.182 837.82h93.09v-93.092h-93.09v93.091z m279.273 0h93.09v-93.092h-93.09v93.091z m279.272 0h93.091v-93.092h-93.09v93.091z" class="i ix" transform="translate(76.02625, 75) scale(0.014)"></path></svg><svg width="147.8" height="150" x="38.89" y="426.67" id="h1488401382" class="t"><rect height="40" width="147.8" class="th"></rect><text x="13" y="25" class="tht">Results</text><rect height="110" width="147.8" class="t-bg"></rect><text x="13" y="61" class="tf pk">ResultID<tspan x="134.8" class="ty">int</tspan></text><path d="M7,14A2,2 0 0,1 5,12A2,2 0 0,1 7,10A2,2 0 0,1 9,12A2,2 0 0,1 7,14M12.65,10C11.83,7.67 9.61,6 7, 6A6, 6 0 0, 0 1, 12A6, 6 0 0, 0 7, 18C9.61, 18 11.83, 16.33 12.65, 14H17V18H21V14H23V10H12.65Z" class="i pk" transform="translate(102.12617187500001, 48) scale(0.65)"></path><text x="13" y="86" class="tf fk">TeamID<tspan x="134.8" class="ty">int</tspan></text><text x="13" y="111" class="tf fk">MatchID<tspan x="134.8" class="ty">int</tspan></text><text x="13" y="136" class="tf">Result-W-L-D<tspan x="134.8" class="ty">string</tspan></text></svg><svg width="158.05" height="300" x="321.67" y="285.56" id="h3829905542" class="t"><rect height="40" width="158.05" class="th"></rect><text x="13" y="25" class="tht">Matches</text><rect height="260" width="158.05" class="t-bg"></rect><text x="13" y="61" class="tf pk">MatchID<tspan x="145.05" class="ty">int</tspan></text><path d="M7,14A2,2 0 0,1 5,12A2,2 0 0,1 7,10A2,2 0 0,1 9,12A2,2 0 0,1 7,14M12.65,10C11.83,7.67 9.61,6 7, 6A6, 6 0 0, 0 1, 12A6, 6 0 0, 0 7, 18C9.61, 18 11.83, 16.33 12.65, 14H17V18H21V14H23V10H12.65Z" class="i pk" transform="translate(112.37617187500001, 48) scale(0.65)"></path><text x="13" y="86" class="tf fk">HomeTeamID<tspan x="145.05" class="ty">int</tspan></text><text x="13" y="111" class="tf fk">AwayTeamID<tspan x="145.05" class="ty">int</tspan></text><text x="13" y="136" class="tf">Location<tspan x="145.05" class="ty">string</tspan></text><text x="13" y="161" class="tf">Date<tspan x="145.05" class="ty">date</tspan></text><text x="13" y="186" class="tf">Start_time<tspan x="145.05" class="ty">time</tspan></text><text x="13" y="211" class="tf fk">SeasonID<tspan x="145.05" class="ty">int</tspan></text><text x="13" y="236" class="tf fk">HeadRefID<tspan x="145.05" class="ty">int</tspan></text><text x="13" y="261" class="tf fk">AssistantRef_1_ID<tspan x="145.05" class="ty">int</tspan></text><text x="13" y="286" class="tf fk">AssistantRef_2_ID<tspan x="145.05" class="ty">int</tspan></text></svg><svg width="126.71" height="150" x="655.56" y="264.44" id="h1247361070" class="t"><rect height="40" width="126.71" class="th"></rect><text x="13" y="25" class="tht">Lineups</text><rect height="110" width="126.71" class="t-bg"></rect><text x="13" y="61" class="tf pk">LineupID<tspan x="113.71" class="ty">int</tspan></text><path d="M7,14A2,2 0 0,1 5,12A2,2 0 0,1 7,10A2,2 0 0,1 9,12A2,2 0 0,1 7,14M12.65,10C11.83,7.67 9.61,6 7, 6A6, 6 0 0, 0 1, 12A6, 6 0 0, 0 7, 18C9.61, 18 11.83, 16.33 12.65, 14H17V18H21V14H23V10H12.65Z" class="i pk" transform="translate(81.036171875, 48) scale(0.65)"></path><text x="13" y="86" class="tf fk">PlayerID<tspan x="113.71" class="ty">int</tspan></text><text x="13" y="111" class="tf fk">MatchID<tspan x="113.71" class="ty">int</tspan></text><text x="13" y="136" class="tf fk">TeamID<tspan x="113.71" class="ty">int</tspan></text></svg><svg width="131.37" height="125" x="600.55" y="442.22" id="h3133071897" class="t"><rect height="40" width="131.37" class="th"></rect><text x="13" y="25" class="tht">Season</text><rect height="85" width="131.37" class="t-bg"></rect><text x="13" y="61" class="tf pk">SeasonID<tspan x="118.37" class="ty">int</tspan></text><path d="M7,14A2,2 0 0,1 5,12A2,2 0 0,1 7,10A2,2 0 0,1 9,12A2,2 0 0,1 7,14M12.65,10C11.83,7.67 9.61,6 7, 6A6, 6 0 0, 0 1, 12A6, 6 0 0, 0 7, 18C9.61, 18 11.83, 16.33 12.65, 14H17V18H21V14H23V10H12.65Z" class="i pk" transform="translate(85.696171875, 48) scale(0.65)"></path><text x="13" y="86" class="tf">Start_date<tspan x="118.37" class="ty">date</tspan></text><text x="13" y="111" class="tf">End_date<tspan x="118.37" class="ty">date</tspan></text></svg></g></g><text class="qdbd-link" x="10" y="20">www.quickdatabasediagrams.com</text></svg>